<?xml version="1.0" standalone="no"?>
<!DOCTYPE svg PUBLIC "-//W3C//DTD SVG 20010904//EN"
 "http://www.w3.org/TR/2001/REC-SVG-20010904/DTD/svg10.dtd">
<svg version="1.0" xmlns="http://www.w3.org/2000/svg"
 width="500.000000pt" height="500.000000pt" viewBox="0 0 500.000000 500.000000"
 preserveAspectRatio="xMidYMid meet">

<g transform="translate(0.000000,500.000000) scale(0.100000,-0.100000)"
fill="#000000" stroke="none">
<path d="M0 2500 l0 -2500 2500 0 2500 0 0 2500 0 2500 -2500 0 -2500 0 0
-2500z m3570 1740 c81 -22 151 -103 170 -196 41 -196 -173 -362 -354 -275 -60
29 -120 104 -136 169 l-13 49 -66 12 c-36 7 -149 30 -250 52 -136 29 -187 36
-192 27 -4 -6 -10 -32 -14 -57 -4 -25 -36 -177 -71 -338 -35 -160 -64 -298
-64 -307 0 -18 17 -23 120 -31 112 -9 257 -41 408 -91 119 -39 213 -83 359
-170 27 -16 36 -17 50 -7 79 55 184 87 258 77 159 -21 271 -120 311 -274 28
-108 -1 -214 -82 -308 -20 -24 -54 -54 -74 -67 l-38 -24 0 -103 c-1 -177 -54
-320 -176 -475 -104 -131 -236 -230 -439 -329 -189 -91 -400 -145 -649 -164
-221 -17 -498 16 -720 86 -98 31 -260 106 -341 157 -56 36 -57 36 -62 14 -11
-51 -75 -687 -100 -1002 -17 -216 -19 -295 -6 -295 4 0 52 96 106 213 135 294
287 592 335 655 22 29 40 63 40 76 0 13 10 35 21 50 16 21 28 26 53 24 l31 -3
-3 -81 c-4 -87 7 -124 36 -124 43 0 87 69 98 151 9 74 19 91 52 87 l27 -3 3
-133 3 -132 77 64 c84 72 118 93 129 82 4 -4 -36 -47 -89 -97 -125 -115 -125
-118 -132 -369 -5 -212 -19 -294 -62 -367 -31 -53 -63 -75 -112 -77 -83 -2
-133 45 -152 142 -25 133 59 333 208 494 40 42 44 53 49 110 l6 62 -32 -27
c-26 -21 -43 -27 -83 -27 -41 0 -54 5 -76 28 -15 15 -32 36 -38 47 -19 35 -89
-101 -265 -517 -162 -382 -199 -448 -253 -448 -65 0 -74 89 -47 450 26 331 32
403 72 765 l30 280 -81 82 c-44 45 -82 78 -84 75 -2 -4 -32 -101 -66 -215
-130 -441 -175 -533 -253 -513 -35 8 -43 39 -62 246 -35 371 -89 736 -110 734
-5 0 -18 -22 -28 -48 -23 -63 -103 -465 -173 -866 -31 -179 -64 -344 -74 -367
-16 -37 -23 -43 -49 -43 -21 0 -34 7 -43 23 -29 51 -5 1730 25 1749 18 11 24
10 43 -9 16 -16 17 -39 10 -283 -15 -585 -24 -1199 -16 -1231 7 -33 7 -33 13
-9 4 14 25 138 47 275 94 575 176 874 246 891 74 19 111 -111 159 -568 40
-374 46 -406 79 -379 18 15 92 238 165 497 l52 182 -36 59 c-62 105 -86 192
-92 333 l-5 126 -47 30 c-96 64 -160 206 -147 324 14 117 92 230 192 276 127
59 267 48 369 -30 l30 -24 65 40 c213 130 486 221 725 242 39 4 89 9 112 12
l42 5 20 92 c12 51 30 140 41 199 11 59 43 208 70 330 56 250 64 265 130 253
40 -7 351 -74 482 -103 l88 -20 21 34 c51 83 172 124 279 94z"/>
<path d="M1895 2791 c-114 -29 -184 -118 -185 -234 0 -102 49 -178 145 -223
88 -42 188 -24 263 49 52 49 75 102 75 172 0 69 -18 112 -67 163 -57 62 -156
93 -231 73z"/>
<path d="M2981 2789 c-124 -38 -200 -162 -172 -282 40 -176 235 -252 379 -147
110 80 132 233 49 342 -56 73 -171 113 -256 87z"/>
<path d="M1906 1978 c-24 -34 -20 -50 22 -90 52 -49 112 -82 217 -117 124 -41
246 -55 412 -48 168 6 296 37 413 98 117 61 158 120 112 162 -28 25 -60 21
-100 -14 -46 -41 -114 -70 -227 -100 -77 -20 -113 -24 -255 -24 -138 1 -180 4
-255 23 -106 27 -182 60 -233 102 -44 36 -84 39 -106 8z"/>
<path d="M2047 893 c-81 -123 -122 -245 -115 -346 7 -94 67 -149 103 -94 32
49 70 317 63 447 l-3 65 -48 -72z"/>
</g>
</svg>
